<svg id="Layer_1" data-name="Layer 1" xmlns="http://www.w3.org/2000/svg" viewBox="0 0 466.63 540.58"><path d="M561,103.34a233.31,233.31,0,0,0-398.29,165V567H330.11v-4.19H166.88V473.07h38.18v19.8H586.94v-19.8h38.18v89.77H461.89V567H629.32V268.32A231.79,231.79,0,0,0,561,103.34ZM227.61,266.71H564.39c1.29,0,1.87.58,1.94.84s-.2.34-.52.51a9.35,9.35,0,0,1-4.49,1.09H230.68a9.35,9.35,0,0,1-4.49-1.09c-.32-.17-.55-.4-.52-.51S226.32,266.71,227.61,266.71Zm23.16-94.43-.6,1.6c-.77,2.11-1.63,4.46-2.4,6.91-.65-7.75-.59-16.8.64-21.55.81-3.12,1.85-6.29,2.86-9.35,1.8-5.49,3.66-11.13,4.36-17,3.86,4.71,7.57,9.64,10,15.2,3.19,7.39,3.36,14.92.49,20.66-1.77,3.52-4.58,6.34-7.56,9.33-.82.82-1.64,1.64-2.43,2.48a49,49,0,0,0-7.19,10c.58-5.41,2.65-11.06,4.32-15.6l.59-1.6c2.67-7.2,4.48-16,1.93-23C256.49,157.43,253.31,165.43,250.77,172.28Zm19.87,38.81a3.28,3.28,0,0,1,3.25,3.77l-4.18,27.83a19.24,19.24,0,0,1-4.4,9.6l-.39.46v5.92a2.21,2.21,0,0,1-2.2,2.2H238.41a1.79,1.79,0,0,1-1.79-1.79v-6.31l-.39-.46a19.13,19.13,0,0,1-4.42-9.62L227.65,215a3.4,3.4,0,0,1,3.36-3.9Zm225.89,35.07a12.07,12.07,0,0,1-10.25-11.87v-7.48h29.3v7.48a12.07,12.07,0,0,1-10.25,11.87l-1.39.21V261.8h-6V246.37Zm40.76-6.8c-5.9-1.25-10.35-8.88-10.35-17.76V210.16h29.3V221.6c0,8.88-4.45,16.51-10.35,17.76l-1.29.28V261.8h-6V239.64ZM552,273.48V423.36H493.78V322.86H298.22v100.5H240V273.48ZM391.7,410.05a2.14,2.14,0,0,0-2.58-1.6l-10.24,2.39-9.45-1.21c-4.3-9.58,2-17.8,8-25.76,4.59-6,9.3-12.2,8.6-18.63,4.94,6,4.78,15-.45,27.3l-1.16,2.75,2.86-.81c5.27-1.48,8.47-5.47,9.91-12.44.58,1.71.38,3.59.13,6a28.44,28.44,0,0,0,.14,9.12,6.8,6.8,0,0,0,3.26,4.44,7,7,0,0,0,5.68.65,8.76,8.76,0,0,0,5.6-6c1.38-4.39.05-9.69-3.69-14.58C397.91,369.05,397,359,398.1,352.8a21.76,21.76,0,0,1,6.29-11.94,21.77,21.77,0,0,0-.29,9.23c1.2,5.22,5.24,10.39,10.81,13.81,5.32,3.28,9.11,7.77,10.41,12.34.93,3.31.41,7-1.65,11.74a113.38,113.38,0,0,1-6.06,11.53l-1.3,2.22,2.57-.06c6.51-.17,11.75-5.63,13.86-11.49,4.74,7.62,5.14,14.18,1.39,20.9l-17.5,4.55-25.88-3.28A2.16,2.16,0,0,0,391.7,410.05Zm13.74,8.49-15.61,4.06a2.11,2.11,0,0,0-1.14.76h-44.5l34.91-8.16ZM416.91,420l26.53,3.36H404Zm44.34,1.28-33.14-4.19,30.19-7.85a2.15,2.15,0,0,0-1.08-4.16l-19.43,5.05c4.32-10.08-.37-18.55-4.47-24.22l-2.05-2.83-.53,3.45c-.75,4.87-4.4,10.1-9.12,11.75a101,101,0,0,0,4.68-9.16c2.3-5.26,2.88-9.73,1.77-13.66-1.48-5.25-5.74-10.35-11.66-14-4.93-3-8.49-7.52-9.5-11.92-1.11-6.93,1.09-10.45,2.28-12.34L412.4,332l-5,3a24.81,24.81,0,0,0-12.07,17.28c-1.19,6.79-.27,17.73,10.82,31.18,3.13,4.1,4.3,8.45,3.2,11.94a6,6,0,0,1-3.74,4.09,4.14,4.14,0,0,1-3.36-.39,3.88,3.88,0,0,1-1.9-2.55,25.23,25.23,0,0,1-.1-8.25c.41-3.91.8-7.61-2.83-11.16l-2.1-2.05L395,378c-.8,7.29-3,10.64-5.39,12.3,5.34-14.55,3.35-25-5.92-31l-5.5-3.58,3.52,5.55c4.26,6.72-.72,13.25-6.48,20.81-6,7.84-12.69,16.65-9,27.08-10-1.27-16.57-2.12-17.19-2.22a2.15,2.15,0,0,0-.84,4.21c.32.06,7.74,1,18.74,2.43l-35.33,8.26a2.14,2.14,0,0,0-1.56,1.46H302.56V327.19H489.44v96.17H463.11A2.14,2.14,0,0,0,461.25,421.28Zm93,6.41h13.64l22.37,14.71H201.78l22.37-14.71H554.21Zm-357.5,19.05H595.29V450H196.71Zm12.69,41.8V454.35H582.6v34.19Zm377.54-18.72V454.35h12.68v-11l-30.47-20H556.37V273.48h5a13.7,13.7,0,0,0,6.58-1.62,4.8,4.8,0,0,0,2.63-5.39c-.63-2.45-3.1-4.09-6.14-4.09H547.85V242.19c6.82-2.27,11.64-10.66,11.64-20.59V206.91h-35.8V221.6c0,9.93,4.82,18.32,11.64,20.59v20.19H507.19V249.1a15.35,15.35,0,0,0,11.64-14.81V223.56H483v10.73a15.34,15.34,0,0,0,11.64,14.81v13.28h-228a5.44,5.44,0,0,0,1.47-3.71v-4.73a22.34,22.34,0,0,0,4.75-10.76l4.18-27.84a6.53,6.53,0,0,0-6.46-7.5H250.56c-.39-3.26-.7-6.55-1-9.77.67-4.75,5.53-11.74,8.87-15.24.78-.82,1.58-1.62,2.38-2.42,3-3,6.16-6.19,8.16-10.18,3.31-6.59,3.16-15.12-.4-23.39-3.12-7.24-8.17-13.27-13-19.11l-2.8-3.34-.07,4.36c-.11,6.83-2.23,13.29-4.48,20.12-1,3.11-2.08,6.33-2.91,9.56a45.37,45.37,0,0,0-1.09,9.14c-.15-.42-.32-.83-.48-1.25l.05,0c-.05-.08-.1-.15-.14-.23a61.36,61.36,0,0,0-4.48-9.11,16.25,16.25,0,0,0,6.39-11.55A18.24,18.24,0,0,0,240,131.07l-1-1.07-1.15,1a16.86,16.86,0,0,0-6,16.2c-2.55-2.8-8.57-5.73-10.93-5.76a72.07,72.07,0,0,1,9.58,9.12,22.09,22.09,0,0,0-6.25-1.76c-6.12-.83-11.8.11-16,2.63L204,153.9l4.83.5a7.53,7.53,0,0,1,2.82,1.27,40.35,40.35,0,0,1,4,3c.92.75,1.82,1.53,2.76,2.37,2.59,2.29,5.26,4.65,8.53,6.09a29.64,29.64,0,0,0,11.79,2.51,25.28,25.28,0,0,0,2.63-.15,75.45,75.45,0,0,1,3.13,12.87,20.34,20.34,0,0,0-2.67-4.48c-3.59-4.49-9.44-6.16-15.09-7.78-4.62-1.32-9-2.57-12.08-5.19l-3.19-2.71.53,4.15a35.63,35.63,0,0,0,19.22,26.81c1.35.66,2.89,1.28,4.53,1.93,4.13,1.66,8.8,3.53,10.8,6.37q.3,3.19.67,6.41H231a6.64,6.64,0,0,0-6.57,7.63l4.16,27.71A22.35,22.35,0,0,0,233.37,254v5.12a5,5,0,0,0,1.26,3.3h-7c-3,0-5.51,1.64-6.14,4.09a4.8,4.8,0,0,0,2.63,5.39,13.7,13.7,0,0,0,6.58,1.62h4.95V423.36H222.85l-30.47,20v11h12.68v15.47H166.88V268.32a229.12,229.12,0,0,1,458.24,0v201.5ZM240.41,189.09a31.16,31.16,0,0,1,4.33,6.54A55.37,55.37,0,0,0,237,192c-1.57-.63-3.06-1.22-4.3-1.83A32.38,32.38,0,0,1,216,169.62a50.87,50.87,0,0,0,9.9,3.57c5.4,1.55,10.5,3,13.44,6.69a21.77,21.77,0,0,1,3.48,7c-5.77-5.11-12.15-8.49-18-8.45C231.9,180.47,238.11,186.28,240.41,189.09Zm-.47-22.76a26.14,26.14,0,0,1-11.62-2.2c-2.81-1.24-5.29-3.43-7.69-5.55-.93-.82-1.89-1.67-2.86-2.46a44.08,44.08,0,0,0-4.35-3.2l-.31-.2a24.21,24.21,0,0,1,10.65-.74,16.62,16.62,0,0,1,9.47,4.29c.44.42.85.86,1.26,1.3a23.4,23.4,0,0,0-12.06-1.9C229,157.28,236.14,160.85,239.94,166.33Zm-4.22-16.9a13.79,13.79,0,0,1,3-14.92,14.66,14.66,0,0,1,3.58,10.61,12.83,12.83,0,0,1-3.25,7.51c-.17-3.39-2.17-8.15-.7-11.07C235.82,143.57,235.87,147.28,235.72,149.43Z" transform="translate(-162.69 -35)"/><path d="M205.18,507.2l-.32-1.82-.71,1.71-1.93,4.65-8.31,19.92-8.31-19.92-1.92-4.65-.71-1.71-.33,1.82-.91,5.12-4.87,27.92-.11.63h4l.08-.45,3.62-21.29,7.46,17.78,1.51,3.63.5,1.2.5-1.2,1.52-3.63,7.45-17.78L207,540.42l.07.45h4l-.11-.63-4.87-27.92Zm-1.58,10-8.17,19.49-1.52,3.63-1.51-3.63-8.18-19.49-3.94,23.12,3.94-23.12,8.18,19.49,1.51,3.63,1.52-3.63,8.17-19.49,3.94,23.12Z" transform="translate(-162.69 -35)"/><polygon points="84.49 475.58 85.03 475.58 85.03 475.04 85.03 472.29 85.03 471.75 84.49 471.75 62.46 471.75 61.92 471.75 61.92 472.29 61.92 505.33 61.92 505.87 62.46 505.87 84.49 505.87 85.03 505.87 85.03 505.33 85.03 502.57 85.03 502.03 84.49 502.03 65.76 502.03 65.76 490.73 84.49 490.73 85.03 490.73 85.03 490.19 85.03 487.43 85.03 486.89 84.49 486.89 65.76 486.89 65.76 475.58 84.49 475.58"/><path d="M266.07,506.75h-3.84v34.12h20.35V537H266.07V506.75Zm16,30.83v2.75h0v-2.75Z" transform="translate(-162.69 -35)"/><polygon points="132.84 471.75 132.84 472.29 132.84 505.33 132.84 505.87 133.39 505.87 136.14 505.87 136.68 505.87 136.68 505.33 136.68 472.29 136.68 471.75 136.14 471.75 133.39 471.75 132.84 471.75"/><path d="M326.28,522.2l-5.92-2.92a3.88,3.88,0,0,1-2.15-2.06,6.85,6.85,0,0,1-.46-2.08,4.41,4.41,0,0,1,.49-2,4,4,0,0,1,2.07-2.16,6.8,6.8,0,0,1,2.07-.46,4.67,4.67,0,0,1,2.05.49,4.3,4.3,0,0,1,2.24,2.39l.24.62.56-.37,2.34-1.54.39-.26-.2-.43a8.29,8.29,0,0,0-10.34-4.27,8.3,8.3,0,0,0-5.25,10.74,8.06,8.06,0,0,0,4.26,4.85l5.92,2.92a5.69,5.69,0,0,1,3,3.43,5.63,5.63,0,0,1-.27,4.57,5.07,5.07,0,0,1-2.71,2.78,9.17,9.17,0,0,1-2.73.61,5.92,5.92,0,0,1-2.62-.64,5.69,5.69,0,0,1-3-3.42,2.37,2.37,0,0,0-.09-.36l-.23-.68-.59.4-2.37,1.6-.36.24.16.4a9.47,9.47,0,0,0,4.81,5.27,9.81,9.81,0,0,0,4.28,1,10,10,0,0,0,3.26-.55,9.49,9.49,0,0,0,5.65-5,9.82,9.82,0,0,0,1-4.29,10,10,0,0,0-.55-3.23A9.65,9.65,0,0,0,326.28,522.2Zm2,2a8.82,8.82,0,0,1,1.86,2.48,8.82,8.82,0,0,0-1.86-2.48,10.06,10.06,0,0,0-2.28-1.55l-2-1,2,1A10.06,10.06,0,0,1,328.32,524.23Zm-11.12-9.09h0a5.46,5.46,0,0,1,0-.57A5.46,5.46,0,0,0,317.2,515.14Zm.55-2.26a5.41,5.41,0,0,0-.41,1.12,5.41,5.41,0,0,1,.41-1.12,7.12,7.12,0,0,1,.51-.87A7.12,7.12,0,0,0,317.75,512.88Zm2.39-2.42a2.88,2.88,0,0,0-.68.34,2.88,2.88,0,0,1,.68-.34l.67-.22a6,6,0,0,1,1.57-.27h0a6,6,0,0,0-1.57.27Zm6,1.08.09.07Zm2.75-1a7.42,7.42,0,0,1,.66,1.13l-2.34,1.54c-.06-.15-.14-.29-.21-.43.07.14.15.28.21.43l2.34-1.54a7.42,7.42,0,0,0-.66-1.13,7.69,7.69,0,0,0-3-2.48A7.69,7.69,0,0,1,328.85,510.52Zm-4.69-3.12a7.25,7.25,0,0,0-1.73-.21h0A7.25,7.25,0,0,1,324.16,507.4Zm-9.24,10.3a7.79,7.79,0,0,1-.44-2,7.79,7.79,0,0,0,.44,2c.09.26.18.51.29.75a7.16,7.16,0,0,0,.51.95,7.16,7.16,0,0,1-.51-.95C315.1,518.21,315,518,314.92,517.7Zm7,19.88h0c-.24,0-.48,0-.72,0C321.43,537.56,321.67,537.58,321.91,537.58Zm-6.17-4.46c.09.24.2.45.3.67-.1-.22-.21-.43-.3-.67a1.32,1.32,0,0,0-.08-.33A1.32,1.32,0,0,1,315.74,533.12Zm-2.09,2.08a8.33,8.33,0,0,0,.89,1.47A8.33,8.33,0,0,1,313.65,535.2Zm12.2,4.26c-.29.13-.58.25-.88.35s-.52.16-.77.23a9.29,9.29,0,0,1-1.55.26c-.25,0-.51,0-.77,0h0c.26,0,.52,0,.77,0a9.29,9.29,0,0,0,1.55-.26c.25-.07.51-.14.77-.23s.59-.22.88-.35a9.06,9.06,0,0,0,2.27-1.45A9.06,9.06,0,0,1,325.85,539.46Zm4.46-4.36a9.9,9.9,0,0,1-1.55,2.29,9.9,9.9,0,0,0,1.55-2.29,9.32,9.32,0,0,0,1-4.05h0A9.32,9.32,0,0,1,330.31,535.1Z" transform="translate(-162.69 -35)"/><path d="M362.55,531.05a10,10,0,0,0-.55-3.23,9.65,9.65,0,0,0-5-5.62l-5.92-2.92a3.88,3.88,0,0,1-2.15-2.06,6.93,6.93,0,0,1-.47-2.08,4.43,4.43,0,0,1,.5-2,4,4,0,0,1,2.07-2.16,6.8,6.8,0,0,1,2.07-.46,4.67,4.67,0,0,1,2.05.49,4.3,4.3,0,0,1,2.24,2.39l.24.62.56-.37,2.34-1.54.39-.26-.2-.43a8.29,8.29,0,0,0-10.34-4.27,8.3,8.3,0,0,0-5.25,10.74,8.06,8.06,0,0,0,4.26,4.85l5.92,2.92a5.69,5.69,0,0,1,3,3.43,5.63,5.63,0,0,1-.27,4.57,5.07,5.07,0,0,1-2.71,2.78,9.17,9.17,0,0,1-2.73.61,5.92,5.92,0,0,1-2.62-.64,5.69,5.69,0,0,1-3-3.42,2.37,2.37,0,0,0-.09-.36l-.23-.68-.59.4-2.37,1.6-.36.24.16.4a9.47,9.47,0,0,0,4.81,5.27,9.81,9.81,0,0,0,4.28,1,10,10,0,0,0,3.26-.55,9.49,9.49,0,0,0,5.65-5A9.82,9.82,0,0,0,362.55,531.05Zm-.58-.84a10,10,0,0,0-.43-2A10,10,0,0,1,362,530.21Zm-2.71.84a5.58,5.58,0,0,0-.1-1.06,5.58,5.58,0,0,1,.1,1.06Zm-11-17.61a5,5,0,0,0-.31,1.7,3.19,3.19,0,0,0,0,.42,3.19,3.19,0,0,1,0-.42A5,5,0,0,1,348.25,513.44Zm.53,4.64a2.55,2.55,0,0,1-.34-.68,10,10,0,0,1-.45-1.71,10,10,0,0,0,.45,1.71A2.55,2.55,0,0,0,348.78,518.08Zm9.13-4.89a4.83,4.83,0,0,0-1.68-2.19,4.83,4.83,0,0,1,1.68,2.19l2.34-1.54ZM356.62,508a8.7,8.7,0,0,1,1.15.68,8.7,8.7,0,0,0-1.15-.68,8,8,0,0,0-2.58-.8A8,8,0,0,1,356.62,508ZM346,518.45c-.11-.24-.2-.49-.29-.75a7.79,7.79,0,0,1-.44-2,7.79,7.79,0,0,0,.44,2c.09.26.18.51.29.75a7.36,7.36,0,0,0,.76,1.35A7.36,7.36,0,0,1,346,518.45Zm6.7,19.13a6.31,6.31,0,0,1-1.61-.22A6.31,6.31,0,0,0,352.65,537.58Zm-6.18-4.53a2.5,2.5,0,0,0-.07-.26h0A2.5,2.5,0,0,1,346.47,533.05Zm-2.08,2.15a8.33,8.33,0,0,0,.89,1.47A8.33,8.33,0,0,1,344.39,535.2Zm11.32,4.61a11.21,11.21,0,0,1-1.54.39,11.21,11.21,0,0,0,1.54-.39,10,10,0,0,0,1.69-.76A10,10,0,0,1,355.71,539.81Zm3.79-2.42a8.85,8.85,0,0,1-1.34,1.18,8.85,8.85,0,0,0,1.34-1.18,9.9,9.9,0,0,0,1.55-2.29,9.32,9.32,0,0,0,1-4.05h0a9.32,9.32,0,0,1-1,4.05A9.9,9.9,0,0,1,359.5,537.39Z" transform="translate(-162.69 -35)"/><path d="M391.86,510.22l-1.6-3.17-.49-1-.48,1-1.57,3.17-14.94,29.87-.4.78h4.38l.15-.3,5.36-10.71h15l5.36,10.71.15.3h4.37l-.39-.78ZM384.19,526l5.59-11.18L395.37,526Zm5.59-12.39-6.47,12.94,6.47-12.94,6.47,12.94Zm1.6-3.17-1.6-3.16,1.6,3.16,14.92,29.87Z" transform="translate(-162.69 -35)"/><path d="M443.25,540.87h.33l.15-.3,5.36-10.71h15l5.36,10.71.15.3H474l-.39-.78-14.92-29.87-1.6-3.17-.48-1-.49,1-1.56,3.17L439.6,540.09l-.39.78h4ZM451,526l5.59-11.18L462.19,526Zm5.59-12.39-6.47,12.94h0l6.47-12.94,6.47,12.94Zm16.52,26.7h0L458.2,510.46Z" transform="translate(-162.69 -35)"/><path d="M486.14,540.87H490V524.31l.13-.2,10.8-16.52.54-.84H497l-.16.25-8.77,13.4L479.29,507l-.16-.25h-4.46l.54.84L486,524.11l.11.16v16.6Zm3.29-16.73v16.19h0V524.14l.22-.33Z" transform="translate(-162.69 -35)"/><path d="M506.36,540.87l.15-.3,5.35-10.71h15l5.36,10.71.15.3h4.38l-.39-.78-14.93-29.87-1.59-3.17-.49-1-.48,1-1.57,3.17-15,29.87-.39.78h4.38ZM513.78,526l5.59-11.18L525,526Zm5.59-12.39-6.47,12.94,6.47-12.94,6.47,12.94Z" transform="translate(-162.69 -35)"/><polygon points="389.51 471.75 388.97 471.75 386.22 471.75 385.68 471.75 385.68 472.29 385.68 505.33 385.68 505.87 386.22 505.87 405.49 505.87 406.03 505.87 406.03 505.33 406.03 502.57 406.03 502.03 405.49 502.03 389.51 502.03 389.51 472.29 389.51 471.75"/><path d="M585.07,540.87l.15-.3,5.36-10.71h15L611,540.57l.15.3h4.37l-.39-.78-14.92-29.87-1.6-3.17-.49-1-.48,1L596,510.22l-14.94,29.87-.4.78h4.38ZM592.49,526l5.6-11.18L603.68,526Zm5.6-12.39-6.47,12.94,6.47-12.94,6.47,12.94Z" transform="translate(-162.69 -35)"/><path d="M341.38,555h-6.13v20.21h6.13a10.11,10.11,0,1,0,0-20.21Zm5.6,15.71a7.66,7.66,0,0,1-5.6,2.32h-3.94V557.14h3.94a7.93,7.93,0,0,1,5.6,13.53Zm.19-11.4a7.65,7.65,0,0,0-1-.84,7.65,7.65,0,0,1,1,.84,8.61,8.61,0,0,1,.93,1.1A8.61,8.61,0,0,0,347.17,559.27Zm1.21,1.53a7.05,7.05,0,0,1,.59,1.12A7.05,7.05,0,0,0,348.38,560.8Zm-7,14.1h0a10.09,10.09,0,0,0,2.89-.41A10.09,10.09,0,0,1,341.38,574.9ZM351,567a9.16,9.16,0,0,1-.94,2.66A9.16,9.16,0,0,0,351,567a10.54,10.54,0,0,0,.18-2h0A10.54,10.54,0,0,1,351,567Zm0-4.11a9,9,0,0,0-.9-2.49A9,9,0,0,1,351,562.92Z" transform="translate(-162.69 -35)"/><path d="M360.39,555h-.27v20.21h13.65V573H362.3v-6.84h11.47V564H362.3v-6.83h11.47V555H360.39ZM373.5,574.9h0Z" transform="translate(-162.69 -35)"/><path d="M388.91,564.15l-3.52-1.74a2.35,2.35,0,0,1-1.31-1.26,4,4,0,0,1-.28-1.25,2.65,2.65,0,0,1,.3-1.22,2.41,2.41,0,0,1,1.26-1.31,4,4,0,0,1,1.25-.28,2.83,2.83,0,0,1,1.24.3,2.56,2.56,0,0,1,1.36,1.44l.12.31.28-.18L391,558l.19-.13-.1-.21a5.15,5.15,0,0,0-4.46-2.81,5.11,5.11,0,0,0-4.5,2.82,4.8,4.8,0,0,0-.52,2.16,5,5,0,0,0,.29,1.64,4.76,4.76,0,0,0,2.52,2.86l3.52,1.74a3.47,3.47,0,0,1,1.83,2.07,3.71,3.71,0,0,1,.22,1.19,3.41,3.41,0,0,1-.39,1.57,3,3,0,0,1-1.64,1.69,5.43,5.43,0,0,1-1.64.36,3.6,3.6,0,0,1-1.58-.38,3.44,3.44,0,0,1-1.83-2.09l-.05-.2-.12-.34-.29.2-1.41,1-.18.12.08.2a5.55,5.55,0,0,0,2.84,3.12,5.78,5.78,0,0,0,2.52.6,5.93,5.93,0,0,0,1.93-.33,5.59,5.59,0,0,0,3.33-2.94,5.59,5.59,0,0,0,.28-4.43A5.67,5.67,0,0,0,388.91,564.15Zm2.68,3.4a5.7,5.7,0,0,0-1.07-1.86A5.7,5.7,0,0,1,391.59,567.55Zm-6.32-4.9a3,3,0,0,1-1.25-1A3,3,0,0,0,385.27,562.65Zm0-5.54a2.66,2.66,0,0,0-1.41,1.45,2.92,2.92,0,0,0-.33,1.34h0a2.92,2.92,0,0,1,.33-1.34,2.66,2.66,0,0,1,1.41-1.45,4.26,4.26,0,0,1,1.34-.29A4.26,4.26,0,0,0,385.27,557.11Zm2.7,0a3,3,0,0,0-.5-.18,3,3,0,0,1,.5.18,2.92,2.92,0,0,1,.91.66A2.92,2.92,0,0,0,388,557.14Zm2.89.68-1.4.91,1.4-.91a4.36,4.36,0,0,0-.89-1.25A4.36,4.36,0,0,1,390.86,557.82Zm-7.12,5.82a4.88,4.88,0,0,0,.8.49l2.36,1.16-2.36-1.16A4.88,4.88,0,0,1,383.74,563.64Zm.47,9a3.92,3.92,0,0,1-1-1A3.92,3.92,0,0,0,384.21,572.6Zm2.1,2.3a5.48,5.48,0,0,1-1.81-.32,5.48,5.48,0,0,0,1.81.32,5.87,5.87,0,0,0,1.84-.31A5.87,5.87,0,0,1,386.31,574.9Z" transform="translate(-162.69 -35)"/><path d="M400.78,555h-.27v20.21h2.18V555h-1.91Zm1.64,19.94h0V555.23h0Z" transform="translate(-162.69 -35)"/><path d="M421.47,564.79h-.28V567h8a8,8,0,0,1-7.71,6,7.93,7.93,0,1,1,5.61-13.54,8.15,8.15,0,0,1,1.79,2.71l.11.28.26-.13,1.48-.74.22-.11-.09-.24a10.25,10.25,0,0,0-2.22-3.31,10.15,10.15,0,1,0,2.94,7.15v-.27h-10.1ZM419.25,573a9.21,9.21,0,0,1-.93-.31,8.11,8.11,0,0,1-1-.5,8.11,8.11,0,0,0,1,.5A9.21,9.21,0,0,0,419.25,573Zm-6-7.91h0a8.14,8.14,0,0,1,.34-2.4A8.14,8.14,0,0,0,413.27,565.06Zm5.05-7.59a7.79,7.79,0,0,0-1.39.75,8.77,8.77,0,0,0-1.26,1,8.1,8.1,0,0,0-1.8,2.65,8.1,8.1,0,0,1,1.8-2.65,8.77,8.77,0,0,1,1.26-1,7.79,7.79,0,0,1,1.39-.75,8,8,0,0,1,2.31-.57A8,8,0,0,0,418.32,557.47Zm10.8,4.59,1.48-.73a9.64,9.64,0,0,0-.72-1.39,9.64,9.64,0,0,1,.72,1.39Zm-3-5.71a9.12,9.12,0,0,0-2.67-.94A9.12,9.12,0,0,1,426.1,556.35Zm-14.47,8.71h0a10.54,10.54,0,0,0,.18,2A10.54,10.54,0,0,1,411.63,565.06Zm13.62,9.12a9.79,9.79,0,0,1-3.78.72,10.11,10.11,0,0,1-2.9-.41,10.11,10.11,0,0,0,2.9.41,9.79,9.79,0,0,0,3.78-.72,9.21,9.21,0,0,0,1.66-.9A9.21,9.21,0,0,1,425.25,574.18Zm5.33-5.34a9.76,9.76,0,0,1-2.16,3.18c-.24.24-.48.47-.73.68.25-.21.49-.44.73-.68a9.48,9.48,0,0,0,2.88-7h0A9.79,9.79,0,0,1,430.58,568.84Z" transform="translate(-162.69 -35)"/><path d="M454.84,555h-.28v15.32L440.28,555l-.47-.5v20.63H442V559.85l14.29,15.23.47.5V555h-1.91Zm0,16h0l-14.76-15.73h0Zm-13.12,3.94h0Zm14.75,0-14.75-15.74h0l14.75,15.74Z" transform="translate(-162.69 -35)"/><path d="M237.49,247l1.6,4.46a1.09,1.09,0,0,0,1,.72,1.13,1.13,0,0,0,.36-.06,1.09,1.09,0,0,0,.66-1.39l-1.6-4.46a30.3,30.3,0,0,1-1.44-5.62l-3.84-24.15a1.08,1.08,0,0,0-2.14.34L236,241A32.73,32.73,0,0,0,237.49,247Z" transform="translate(-162.69 -35)"/><path d="M330.84,212.69V86.25a94.39,94.39,0,0,0,0,126.44Z" transform="translate(-162.69 -35)"/><path d="M397.46,88.16,374.39,178.4l-6.31,25.26-1.71-5.51-32.12-97.5V216.21a82.59,82.59,0,0,0,54.07,23.66l9.14-37.61Z" transform="translate(-162.69 -35)"/><polygon points="245.18 138.4 277.63 138.4 261.41 71.41 245.18 138.4"/><path d="M406.84,178.15,391.61,240h.29a82.59,82.59,0,0,0,58.45-24.53l-9-37.28Z" transform="translate(-162.69 -35)"/><path d="M391.9,59a81.75,81.75,0,0,0-50.65,17.66l31.44,96.52,24.77-97H418v2s-6.84,1.25-6.84,8V146l11.26-46.36L428,76.16h2.73l30.48,126.11a93.67,93.67,0,0,0,16-52.8C477.27,99.49,439.05,59,391.9,59Z" transform="translate(-162.69 -35)"/><path d="M391.9,46.43a94.56,94.56,0,0,0-62.49,24c-1.68,1.46-3.36,3-5,4.69l-.42.42c-19.16,19.61-29.71,45.88-29.71,74,0,28.71,11.51,56.35,31.59,75.85a99.46,99.46,0,0,0,10,8.49,93.93,93.93,0,0,0,50.85,18.57c1.26.07,2.42.11,3.54.12.52,0,1.07,0,1.63,0A93.36,93.36,0,0,0,450.31,232l.08-.06c.14-.11.28-.22.41-.34,1.16-.91,2.31-1.88,3.53-3a100.61,100.61,0,0,0,14.13-15.31,105.43,105.43,0,0,0,21.05-63.84C489.51,92.65,445.72,46.43,391.9,46.43Zm-65,174.87q1.89,1.94,3.91,3.74Q328.83,223.24,326.94,221.3Zm-16.16-122c-.78,1.4-1.53,2.83-2.25,4.27C309.25,102.08,310,100.65,310.78,99.25Zm12.36-17.53c1-1.19,2.11-2.34,3.21-3.47s2.34-2.36,3.55-3.49c-1.21,1.13-2.39,2.3-3.55,3.49s-2.17,2.28-3.21,3.47-2.06,2.4-3.05,3.63C321.08,84.12,322.1,82.9,323.14,81.72ZM465.47,208.89a96.21,96.21,0,0,1-12,13.76,89.5,89.5,0,0,1-61.53,24.84h-1c-1.27,0-2.39,0-3.45-.1a88.92,88.92,0,0,1-48.86-17.85l-.13-.1,0,0-.08-.06c-2.21-1.67-4.4-3.48-6.49-5.38-1.29-1.16-2.58-2.39-3.85-3.68-18.47-18.7-28.64-43.85-28.64-70.82a100.07,100.07,0,0,1,28.06-70.21,92.9,92.9,0,0,1,7.17-6.67A88.29,88.29,0,0,1,391.9,51.45c51.05,0,92.58,44,92.58,98A100.7,100.7,0,0,1,465.47,208.89Zm12.59-19.6q-1.51,3.66-3.3,7.16Q476.54,193,478.06,189.29Zm-110.9,56.16c-2.15-.63-4.28-1.33-6.37-2.11C362.88,244.12,365,244.82,367.16,245.45Zm-12.55-4.67a91.85,91.85,0,0,1-8.84-4.65q-2.86-1.71-5.59-3.62,2.73,1.91,5.59,3.62A91.85,91.85,0,0,0,354.61,240.78ZM379.73,50.83q-4,.56-7.86,1.45Q375.76,51.38,379.73,50.83Zm-19.2,4.87c2.45-.92,5-1.74,7.5-2.45C365.49,54,363,54.78,360.53,55.7Zm-10.71,4.84c2.3-1.23,4.66-2.35,7.06-3.38C354.48,58.19,352.12,59.31,349.82,60.54ZM299,134.09c-.25,1.67-.46,3.35-.62,5C298.55,137.44,298.76,135.76,299,134.09Zm38.43,96.42s0,0,0,0,0,0,0,0Zm40.13,17.27c-1.29-.21-2.58-.44-3.85-.71C375,247.34,376.28,247.57,377.57,247.78Zm13.23,1.15h0Zm93.81-82.84c-.48,3-1.12,6.06-1.86,9,.74-2.95,1.38-6,1.86-9a104.61,104.61,0,0,0,1.32-16.62A104.61,104.61,0,0,1,484.61,166.09Zm-31.24,61.44c-.58.52-1.15,1-1.74,1.51s-1.17,1-1.76,1.43c-.15.14-.31.26-.46.38.15-.12.31-.24.46-.38.59-.46,1.18-.94,1.76-1.43s1.16-1,1.74-1.51q1.92-1.68,3.76-3.48Q455.29,225.85,453.37,227.53Z" transform="translate(-162.69 -35)"/></svg>